<?xml version="1.0" encoding="utf-8"?>
<!-- Generator: Adobe Illustrator 22.1.0, SVG Export Plug-In . SVG Version: 6.00 Build 0)  -->
<svg version="1.1" id="Layer_1" xmlns="http://www.w3.org/2000/svg" xmlns:xlink="http://www.w3.org/1999/xlink" x="0px" y="0px"
	 viewBox="0 0 144 16" style="enable-background:new 0 0 144 16;" xml:space="preserve">
<style type="text/css">
	.st0{fill:#231F20;}
</style>
<g>
	<g>
		<path class="st0" d="M0,15.8c0,0,0.4-0.4,0.4-0.7v-14C0.4,0.8,0,0.4,0,0.4h6.9c4.3,0,8.1,3.2,8.2,7.6c0.1,4.3-3.7,7.8-8.1,7.8H0z
			 M6.9,15.1c2.4,0,6.4-2.4,6.4-7.1c0.1-4.3-3.7-6.9-6.5-6.9H2.3l0,14H6.9z"/>
		<path class="st0" d="M31.8,15.7c0,0-2.4,1.1-5-1.3c0,0-2-1.4-5-5.6h-1.2v6.2c0,0.3,0.3,0.7,0.3,0.7h-2.7c0,0,0.4-0.4,0.4-0.7v-14
			c0-0.3-0.4-0.7-0.4-0.7h3.4c2.7,0,5.3,1.6,5.3,4.1c0,0.9-0.5,2.9-2.9,3.9c1.2,2.3,4.3,5.2,4.3,5.2C29.1,14.3,30.7,15.7,31.8,15.7z
			 M25.1,4.5c-0.1-1.4-1.4-3.4-3.5-3.4h-1v7l1,0C23,8.1,25.1,6.8,25.1,4.5z"/>
		<path class="st0" d="M40.3,15.8c0,0,0.4-0.4,0.4-0.7v-14c0-0.3-0.4-0.7-0.4-0.7h6.9c4.3,0,8.1,3.2,8.2,7.6
			c0.1,4.3-3.7,7.8-8.1,7.8H40.3z M47.3,15.1c2.4,0,6.4-2.4,6.4-7.1c0.1-4.3-3.7-6.9-6.5-6.9h-4.6l0,14H47.3z"/>
		<path class="st0" d="M60.9,8h4.2c0.5,0,0.6-0.6,0.6-0.6v1.8c0,0-0.1-0.6-0.6-0.6h-4.2v6.4h4.3c0.5,0,1-0.6,1-0.6l-0.4,1.3h-7.2
			c0,0,0.4-0.4,0.4-0.7v-14c0-0.3-0.4-0.7-0.4-0.7h7.1v1.3c0,0-0.1-0.6-0.6-0.6h-4.2V8z"/>
		<path class="st0" d="M77,15.8h-7.7c0.2-0.2,0.4-0.5,0.4-0.7v-14c0-0.2-0.2-0.5-0.4-0.7H72c-0.2,0.2-0.4,0.5-0.4,0.7v14h4.7
			c0.4,0,0.8-0.3,1-0.6L77,15.8z"/>
		<path class="st0" d="M82.8,15.1c0,0.3,0.4,0.7,0.4,0.7h-2.7c0,0,0.4-0.4,0.4-0.7v-14c0-0.3-0.4-0.7-0.4-0.7h2.7
			c0,0-0.4,0.4-0.4,0.7V15.1z"/>
		<path class="st0" d="M94.7,16c-4.6,0-8.2-3.6-8.4-7.9c-0.1-4.3,3.2-8,8.2-8c1.1,0,3,0.1,4.4,0.6l1.1,0.2l0,1.5
			c-1.3-1.3-2.7-1.6-4.5-1.6c-4.1,0-7.4,3.3-7.4,7.2c0,3.9,3.3,7.1,7.4,7.1c1.8,0,3.7-0.3,5.1-1.5l-0.4,1.6
			C98.6,15.7,96.3,16,94.7,16z"/>
		<path class="st0" d="M103.4,15.1c-0.2,0.5,0.2,0.7,0.2,0.7h-1.8c0,0,0.7-0.2,0.9-0.8L108.1,3l-0.5-1.1l1.1-1.8l6.7,15.1
			c0.2,0.3,0.7,0.7,0.7,0.7h-2.7c0,0,0.2-0.4,0-0.7l-2.2-5h-5.6L103.4,15.1z M108.4,3.7l-2.5,5.7h5L108.4,3.7z"/>
		<path class="st0" d="M124.4,16c-4.6,0-8.2-3.6-8.4-7.9c-0.1-4.3,3.2-8,8.2-8c1.1,0,3,0.1,4.4,0.6l1.1,0.2l0,1.5
			c-1.3-1.3-2.7-1.6-4.5-1.6c-4.1,0-7.4,3.3-7.4,7.2c0,3.9,3.3,7.1,7.4,7.1c1.8,0,3.7-0.3,5.1-1.5l-0.4,1.6
			C128.4,15.7,126,16,124.4,16z"/>
		<path class="st0" d="M136.8,8.3l-4.4-7.3c-0.2-0.3-0.8-0.7-0.8-0.7h2.8c0,0-0.1,0.4,0.1,0.7l3.9,6.5l3.9-6.4
			c0.3-0.5-0.1-0.7-0.1-0.7h1.8c0,0-0.7,0.2-1,0.8l-4.2,6.9v7c0,0.3,0.3,0.7,0.3,0.7h-2.6c0,0,0.3-0.4,0.3-0.7V8.3z"/>
	</g>
</g>
</svg>
